{"title":"Knight And Day 2010.V2.TS.XVID.FEEL-FREE","uid":5737661,"size":1207529489,"categoryP":"video","categoryS":"movies","magnet":"?xt=urn:btih:7d4bdf5b9ec42fa7820549f6ce89b8574af60bbc&amp;dn=Knight+And+Day+2010.V2.TS.XVID.FEEL-FREE&amp;tr=udp%3A%2F%2Ftracker.openbittorrent.com%3A80&amp;tr=udp%3A%2F%2Fopen.demonii.com%3A1337&amp;tr=udp%3A%2F%2Ftracker.coppersurfer.tk%3A6969&amp;tr=udp%3A%2F%2Fexodus.desync.com%3A6969","seeders":1,"leechers":0,"uploader":"johnnyrep","files":11,"time":1280876858,"description":"June Havens finds her everyday life tangled with that of a secret agent who has realized he isn't supposed to survive his latest mission. As their campaign to stay alive stretches across the globe, they soon learn that all they can count on is each other.\n &lt;a href=&quot;\nhttp://www.imdb.com/title/tt1013743/&quot; rel=&quot;nofollow&quot; target=&quot;_NEW&quot;&gt;\nhttp://www.imdb.com/title/tt1013743/&lt;/a&gt;\n\nGenre:Thriller / Comedie / Actiune\nLanguage:English\nIMDb:http://www.imdb.com/title/tt1013743/\nSource:TA.Thanks\nSample:Yes\nSubtitles: ROMANA\n.............................................\nGeneral\nComplete name : Knight.And.Day.2010.V2.TS.XVID.FEEL-FREE\nFormat : AVI\nFormat/Info : Audio Video Interleave\nFile size : 1.11 GiB\nDuration : 1h 43mn\nOverall bit rate : 1 525 Kbps\nWriting library : VirtualDub build 32817/release\n.............................................\nVideo\nID : 0\nFormat : MPEG-4 Visual\nFormat profile : AdvancedSimple@L5\nFormat settings, BVOP : Yes\nFormat settings, QPel : No\nFormat settings, GMC : No warppoints\nFormat settings, Matrix : Custom\nCodec ID : XVID\nCodec ID/Hint : XviD\nDuration : 1h 43mn\nBit rate : 1 390 Kbps\nWidth : 688 pixels\nHeight : 288 pixels\nDisplay aspect ratio : 2.35:1\nFrame rate : 25.000 fps\nResolution : 24 bits\nColorimetry : 4:2:0\nScan type : Progressive\nBits/(Pixel*Frame) : 0.281\nStream size : 1.01 GiB (91%)\nWriting library : XviD 1.2.1 (UTC 2008-12-04)\n..............................................\nAudio\nID : 1\nFormat : MPEG Audio\nFormat version : Version 1\nFormat profile : Layer 3\nFormat settings, Mode : Joint stereo / MS Stereo\nCodec ID : 55\nCodec ID/Hint : MP3\nDuration : 1h 43mn\nBit rate mode : Variable\nBit rate : 122 Kbps\nNominal bit rate : 132 Kbps\nChannel(s) : 2 channels\nSampling rate : 48.0 KHz\nResolution : 16 bits\nStream size : 90.9 MiB (8%)\nAlignment : Aligned on interleaves\nInterleave, duration : 24 ms (0.60 video frame)\nInterleave, preload duration : 525 ms\nWriting library : LAME3.99a\n...............................................","torrent":{"xt":"urn:btih:7d4bdf5b9ec42fa7820549f6ce89b8574af60bbc","amp;dn":"Knight+And+Day+2010.V2.TS.XVID.FEEL-FREE","amp;tr":["udp%3A%2F%2Ftracker.openbittorrent.com%3A80","udp%3A%2F%2Fopen.demonii.com%3A1337","udp%3A%2F%2Ftracker.coppersurfer.tk%3A6969","udp%3A%2F%2Fexodus.desync.com%3A6969"],"infoHash":"7d4bdf5b9ec42fa7820549f6ce89b8574af60bbc","infoHashBuffer":{"type":"Buffer","data":[125,75,223,91,158,196,47,167,130,5,73,246,206,137,184,87,74,246,11,188]},"announce":[],"urlList":[]}}